<?xml version="1.0" standalone="no"?>
<!DOCTYPE svg PUBLIC "-//W3C//DTD SVG 20010904//EN"
 "http://www.w3.org/TR/2001/REC-SVG-20010904/DTD/svg10.dtd">
<svg version="1.0" xmlns="http://www.w3.org/2000/svg"
 width="512.000000pt" height="512.000000pt" viewBox="0 0 512.000000 512.000000"
 preserveAspectRatio="xMidYMid meet">
<metadata>
Created by potrace 1.11, written by Peter Selinger 2001-2013
</metadata>
<g transform="translate(0.000000,512.000000) scale(0.100000,-0.100000)"
fill="#000000" stroke="none">
<path d="M1248 4068 c-9 -13 -28 -36 -42 -53 -15 -16 -63 -74 -107 -128 -44
-53 -88 -107 -98 -120 -11 -12 -88 -105 -171 -207 -83 -102 -160 -195 -170
-206 -10 -12 -46 -57 -81 -100 -35 -44 -66 -81 -69 -84 -3 -3 -68 -81 -145
-175 -76 -93 -141 -172 -144 -175 -3 -3 -33 -39 -66 -80 -33 -41 -73 -89 -89
-107 -57 -64 -58 -68 -34 -99 12 -16 25 -31 28 -34 3 -3 64 -77 136 -165 185
-228 862 -1055 888 -1085 12 -14 50 -61 86 -105 36 -44 72 -88 81 -98 15 -17
25 -4 167 225 l150 243 -37 45 c-139 169 -811 1000 -811 1003 0 2 191 237 424
522 l424 518 -47 76 c-26 42 -92 148 -146 236 -54 88 -101 164 -105 168 -4 4
-14 -2 -22 -15z"/>
<path d="M3749 3922 c-56 -92 -124 -201 -150 -243 l-48 -77 171 -208 c95 -115
201 -245 237 -289 36 -44 147 -180 247 -301 100 -122 184 -227 188 -233 6 -9
-40 -71 -176 -236 -37 -45 -604 -744 -644 -794 l-22 -26 148 -240 c81 -132
151 -239 155 -238 6 1 118 134 255 303 19 24 142 174 274 334 131 160 255 311
275 336 20 24 130 159 244 298 184 225 206 256 194 271 -8 9 -45 54 -83 101
-38 47 -73 90 -79 96 -5 6 -26 30 -45 54 -19 24 -113 138 -208 254 -96 116
-211 257 -257 312 -46 56 -92 113 -103 125 -11 13 -57 69 -102 124 -45 55 -95
115 -111 134 -16 19 -44 53 -62 75 -17 22 -69 84 -113 137 l-82 98 -103 -167z"/>
<path d="M2697 4052 c-3 -10 -28 -96 -56 -192 -29 -96 -77 -259 -107 -362 -57
-197 -146 -504 -196 -673 -16 -55 -33 -113 -38 -130 -4 -16 -24 -84 -43 -150
-265 -905 -427 -1468 -423 -1472 7 -7 522 -7 534 1 5 3 12 16 14 28 3 13 26
93 51 178 162 548 809 2748 813 2766 l6 22 -275 0 c-247 0 -276 -2 -280 -16z"/>
</g>
</svg>
